<?xml version="1.0" encoding="UTF-8" standalone="no"?>
<!-- Created with Inkscape (http://www.inkscape.org/) -->

<svg
   xmlns:dc="http://purl.org/dc/elements/1.1/"
   xmlns:cc="http://creativecommons.org/ns#"
   xmlns:rdf="http://www.w3.org/1999/02/22-rdf-syntax-ns#"
   xmlns:svg="http://www.w3.org/2000/svg"
   xmlns="http://www.w3.org/2000/svg"
   xmlns:sodipodi="http://sodipodi.sourceforge.net/DTD/sodipodi-0.dtd"
   xmlns:inkscape="http://www.inkscape.org/namespaces/inkscape"
   width="1000.0001"
   height="273.14996"
   id="svg3500"
   version="1.1"
   inkscape:version="0.48.5 r10040"
   sodipodi:docname="New document 5">
  <defs
     id="defs3502">
    <clipPath
       clipPathUnits="userSpaceOnUse"
       id="clipPath3191">
      <path
         inkscape:connector-curvature="0"
         d="m 257.04,382.662 97.92,0 0,26.676 -97.92,0 0,-26.676 z"
         id="path3193" />
    </clipPath>
  </defs>
  <sodipodi:namedview
     id="base"
     pagecolor="#ffffff"
     bordercolor="#666666"
     borderopacity="1.0"
     inkscape:pageopacity="0.0"
     inkscape:pageshadow="2"
     inkscape:zoom="0.28266602"
     inkscape:cx="602.06584"
     inkscape:cy="-86.297967"
     inkscape:document-units="px"
     inkscape:current-layer="layer1"
     showgrid="false"
     fit-margin-left="0.5"
     fit-margin-bottom="0.5"
     fit-margin-top="0.5"
     fit-margin-right="0.5"
     inkscape:window-width="1092"
     inkscape:window-height="1024"
     inkscape:window-x="818"
     inkscape:window-y="-9"
     inkscape:window-maximized="0" />
  <metadata
     id="metadata3505">
    <rdf:RDF>
      <cc:Work
         rdf:about="">
        <dc:format>image/svg+xml</dc:format>
        <dc:type
           rdf:resource="http://purl.org/dc/dcmitype/StillImage" />
        <dc:title></dc:title>
      </cc:Work>
    </rdf:RDF>
  </metadata>
  <g
     inkscape:label="Layer 1"
     inkscape:groupmode="layer"
     id="layer1"
     transform="translate(-272.58571,-504.95591)">
    <g
       id="g3167"
       transform="matrix(10.202206,0,0,-10.202206,273.08571,561.65888)"
       style="fill:#007de6;fill-opacity:1">
      <path
         inkscape:connector-curvature="0"
         d="M 0,0 5.833,-4.671 14.34,0.581 8.437,5.508 0,0 z"
         style="fill:#007de6;fill-opacity:1;fill-rule:nonzero;stroke:none"
         id="path3169" />
    </g>
    <g
       id="g3171"
       transform="matrix(10.202206,0,0,-10.202206,273.08571,656.97702)"
       style="fill:#007de6;fill-opacity:1">
      <path
         inkscape:connector-curvature="0"
         d="M 0,0 8.437,-5.508 14.34,-0.581 5.833,4.672 0,0 z"
         style="fill:#007de6;fill-opacity:1;fill-rule:nonzero;stroke:none"
         id="path3173" />
    </g>
    <g
       id="g3175"
       transform="matrix(10.202206,0,0,-10.202206,419.38224,662.90246)"
       style="fill:#007de6;fill-opacity:1">
      <path
         inkscape:connector-curvature="0"
         d="M 0,0 5.903,-4.927 14.34,0.581 8.506,5.252 0,0 z"
         style="fill:#007de6;fill-opacity:1;fill-rule:nonzero;stroke:none"
         id="path3177" />
    </g>
    <g
       id="g3179"
       transform="matrix(10.202206,0,0,-10.202206,479.60692,505.45591)"
       style="fill:#007de6;fill-opacity:1">
      <path
         inkscape:connector-curvature="0"
         d="M 0,0 -5.903,-4.927 2.604,-10.18 8.437,-5.509 0,0 z"
         style="fill:#007de6;fill-opacity:1;fill-rule:nonzero;stroke:none"
         id="path3181" />
    </g>
    <g
       id="g3183"
       transform="matrix(10.202206,0,0,-10.202206,359.15764,723.84024)"
       style="fill:#007de6;fill-opacity:1">
      <path
         inkscape:connector-curvature="0"
         d="m 0,0 -2.534,1.654 0,-1.854 8.454,-5.07 8.454,5.07 0,1.854 L 11.841,0 5.92,4.913 0,0 z"
         style="fill:#007de6;fill-opacity:1;fill-rule:nonzero;stroke:none"
         id="path3185" />
    </g>
    <g
       transform="matrix(10.202206,0,0,-10.202206,-2349.2892,4681.6066)"
       id="g3187"
       style="fill:#007de6;fill-opacity:1">
      <g
         id="g3189"
         clip-path="url(#clipPath3191)"
         style="fill:#007de6;fill-opacity:1">
        <g
           id="g3195"
           transform="translate(293.2692,401.2672)"
           style="fill:#007de6;fill-opacity:1">
          <path
             inkscape:connector-curvature="0"
             d="m 0,0 0.557,0 c 1.315,0 3.121,-0.156 3.121,-4.716 0,-4.849 -1.828,-5.006 -3.121,-5.006 L 0,-9.722 0,0 z m -3.254,-12.279 3.9,0 c 1.137,0 2.741,0 4.057,1.023 1.605,1.224 2.429,3.715 2.429,6.496 0,7.296 -4.614,7.319 -6.887,7.319 l -3.499,0 0,-14.838 z"
             style="fill:#007de6;fill-opacity:1;fill-rule:nonzero;stroke:none"
             id="path3197" />
        </g>
        <g
           id="g3199"
           transform="translate(301.5222,399.9548)"
           style="fill:#007de6;fill-opacity:1">
          <path
             inkscape:connector-curvature="0"
             d="m 0,0 0,-10.967 3.053,0 0,4.738 c 0,0.846 0,3.382 2.251,3.382 0.112,0 0.245,0 0.512,-0.045 l 0,2.981 C 5.661,0.134 5.505,0.156 5.281,0.156 3.499,0.156 2.964,-1.713 2.696,-2.647 L 2.696,0 0,0 z"
             style="fill:#007de6;fill-opacity:1;fill-rule:nonzero;stroke:none"
             id="path3201" />
        </g>
        <g
           id="g3203"
           transform="translate(312.2341,398.064)"
           style="fill:#007de6;fill-opacity:1">
          <path
             inkscape:connector-curvature="0"
             d="m 0,0 c 0.937,0 1.293,-0.756 1.293,-3.581 0,-2.937 -0.401,-3.582 -1.293,-3.582 -0.914,0 -1.315,0.668 -1.315,3.582 0,2.691 0.312,3.581 1.293,3.581 L 0,0 z m 0,2.136 c -3.276,0 -4.479,-2.292 -4.479,-5.717 0,-3.538 1.292,-5.717 4.457,-5.717 3.21,0 4.48,2.201 4.48,5.717 0,3.425 -1.203,5.717 -4.458,5.717"
             style="fill:#007de6;fill-opacity:1;fill-rule:nonzero;stroke:none"
             id="path3205" />
        </g>
        <g
           id="g3207"
           transform="translate(320.6069,395.5504)"
           style="fill:#007de6;fill-opacity:1">
          <path
             inkscape:connector-curvature="0"
             d="m 0,0 c 0,0.979 0,2.536 1.382,2.536 1.181,0 1.27,-1.535 1.27,-3.47 0,-2.314 -0.111,-3.671 -1.36,-3.671 C 0,-4.605 0,-3.67 0,-2.091 L 0,0 z m -3.009,4.404 0,-14.682 3.009,0 0,4.516 c 0.334,-0.356 0.891,-0.956 2.095,-0.956 3.499,0 3.723,4.227 3.723,5.784 0,1.846 -0.357,3.559 -1.427,4.649 C 3.856,4.249 3.031,4.561 2.296,4.561 0.802,4.561 0.2,3.471 -0.179,2.758 l 0,1.646 -2.83,0 z"
             style="fill:#007de6;fill-opacity:1;fill-rule:nonzero;stroke:none"
             id="path3209" />
        </g>
        <g
           id="g3211"
           transform="translate(330.3425,396.0843)"
           style="fill:#007de6;fill-opacity:1">
          <path
             inkscape:connector-curvature="0"
             d="m 0,0 c 0,0.556 0,1.112 0.357,1.535 0.223,0.289 0.579,0.467 0.981,0.467 0.869,0 1.337,-0.734 1.337,-3.626 0,-2.825 -0.423,-3.581 -1.382,-3.581 C 0,-5.205 0,-3.782 0,-2.536 L 0,0 z m -3.009,7.742 0,-14.838 1.805,0 c 0.246,0.778 0.357,1 0.58,1.424 0.267,-0.556 0.78,-1.646 2.541,-1.646 0.58,0 1.182,0.111 1.783,0.422 2.007,1.045 2.14,4.338 2.14,5.361 0,2.647 -0.847,5.562 -3.544,5.562 C 0.981,4.027 0.38,3.315 0,2.847 l 0,4.895 -3.009,0 z"
             style="fill:#007de6;fill-opacity:1;fill-rule:nonzero;stroke:none"
             id="path3213" />
        </g>
        <g
           id="g3215"
           transform="translate(341.4301,398.064)"
           style="fill:#007de6;fill-opacity:1">
          <path
             inkscape:connector-curvature="0"
             d="m 0,0 c 0.935,0 1.292,-0.756 1.292,-3.581 0,-2.937 -0.401,-3.582 -1.292,-3.582 -0.914,0 -1.316,0.668 -1.316,3.582 0,2.691 0.313,3.581 1.294,3.581 L 0,0 z m 0,2.136 c -3.277,0 -4.481,-2.292 -4.481,-5.717 0,-3.538 1.294,-5.717 4.459,-5.717 3.209,0 4.479,2.201 4.479,5.717 0,3.425 -1.203,5.717 -4.457,5.717"
             style="fill:#007de6;fill-opacity:1;fill-rule:nonzero;stroke:none"
             id="path3217" />
        </g>
        <g
           id="g3219"
           transform="translate(345.9551,399.9548)"
           style="fill:#007de6;fill-opacity:1">
          <path
             inkscape:connector-curvature="0"
             d="m 0,0 2.831,-5.361 -3.254,-5.606 2.652,0 1.85,3.292 1.605,-3.292 3.321,0 -3.277,6.14 L 8.559,0 5.907,0 4.502,-2.536 3.321,0 0,0 z"
             style="fill:#007de6;fill-opacity:1;fill-rule:nonzero;stroke:none"
             id="path3221" />
        </g>
      </g>
    </g>
  </g>
</svg>
